<svg id="eTnte7LJ4qW1" xmlns="http://www.w3.org/2000/svg" xmlns:xlink="http://www.w3.org/1999/xlink" viewBox="0 0 831 857" shape-rendering="geometricPrecision" text-rendering="geometricPrecision"><path d="M321.35,199.42c-.081,3.394-1.486,6.621-3.916,8.993-2.429,2.371-5.689,3.698-9.084,3.697h-.29l-12.33-.26v2.45c-.25,12.05-4.837,23.606-12.919,32.548s-19.117,14.669-31.081,16.132l-15.55,29.78-33.35-17.42l11.58-22.17c-6.321-4.772-11.418-10.978-14.871-18.107-3.453-7.128-5.163-14.974-4.989-22.893l.61-28.89c.289-13.279,5.839-25.901,15.431-35.089c9.591-9.189,22.439-14.192,35.719-13.911h1c13.28.289,25.901,5.839,35.089,15.431c9.189,9.591,14.192,22.439,13.911,35.719v.5l12.32.26c3.439.074,6.709,1.507,9.093,3.987c2.385,2.48,3.689,5.804,3.627,9.243v0Z" fill="#c0512b"/><g id="eTnte7LJ4qW3" transform="translate(34.254458-14.473219)"><path d="M615,15.08c-22.696,10.8638-43.876,24.6472-63,41-4.85,4-9.43,8.29-14,12.55l-6.74,6.57c-2.24,2.2-4.36,4.51-6.55,6.76-8.62,9.14-16.86,18.62-24.59,28.52s-15,20.09-22,30.54-13.43,21.2-19.65,32.11c-12.329,21.871-23.436,44.409-33.27,67.51-19.8,46.16-35.2,94.1-47.53,142.76-6.14,24.333-11.5,48.847-16.08,73.54-2.3,12.34-4.39,24.71-6.27,37.11-1.86,12.39-3.57,24.86-4.84,37.26-.033.328-.131.647-.288.937-.156.291-.369.548-.625.756-.255.208-.55.365-.866.459-.316.095-.648.126-.976.093-.328-.034-.647-.131-.937-.288-.291-.157-.548-.369-.756-.625-.209-.255-.365-.55-.459-.866-.095-.316-.126-.648-.093-.976v0c1.39-12.6,3.2-25,5.18-37.49s4.19-24.84,6.6-37.2c4.833-24.74,10.413-49.29,16.74-73.65c12.74-48.71,28.62-96.67,48.81-142.83c10.064-23.09,21.395-45.608,33.94-67.45c6.327-10.88,12.993-21.547,20-32s14.45-20.603,22.33-30.45c7.83-9.86,16.18-19.3,24.89-28.38c2.21-2.24,4.36-4.54,6.63-6.73l6.81-6.53c4.66-4.23,9.29-8.49,14.17-12.46C570.867,39.4127,592.186,25.781,615,15.08v0Z" fill="#002"/><path d="M352.5,492.57c0,0,145.83-43.76,49.92-191.38c0,0,134.9-2.19,77-155.41c0,0,115.09,24.8,114.09-119.2l43,795" fill="none" stroke="#002" stroke-width="5" stroke-linecap="round" stroke-miterlimit="10"/></g><path d="M202.847,663.437l61.397,96.41c8.209,12.89,10.961,28.513,7.65,43.432-3.31,14.919-12.411,27.912-25.301,36.121v0l-92.39-145.08l48.601-30.95.043.067Z" fill="#002"/><path d="M413.215,630.13c19.333-12.311,25.025-37.964,12.713-57.296-12.311-19.333-37.964-25.024-57.296-12.713L204.152,664.866c-19.332,12.311-25.024,37.964-12.713,57.296c12.312,19.333,37.964,25.024,57.297,12.713L413.215,630.13Z" fill="#c0512b" stroke="#002" stroke-width="5" stroke-miterlimit="10"/><path d="M349.58,788.4h114.35c15.278,0,29.931,6.068,40.736,16.869c10.806,10.802,16.879,25.453,16.884,40.731v0h-172v-57.6h.03Z" fill="#002"/><path d="M434.49,593.07v195c0,11.007-4.372,21.562-12.155,29.345s-18.339,12.155-29.345,12.155-21.562-4.372-29.345-12.155-12.155-18.338-12.155-29.345v-158.5h-223.49c-10.211,0-20.003-4.056-27.224-11.276-7.2198-7.22-11.276-17.013-11.276-27.224s4.0562-20.003,11.276-27.224c7.221-7.22,17.013-11.276,27.224-11.276c0,0,261.88-1,265-1c11.005.005,21.557,4.379,29.339,12.161s12.156,18.334,12.161,29.339h-.01Z" fill="#c0512b" stroke="#002" stroke-width="5" stroke-miterlimit="10"/><path d="M457,759.07c0,0-114,17-117,17-2,0-1.78-68.44-1.43-118.06L126.67,636.4c-18.646-.772-36.2808-8.688-49.2507-22.106C64.4494,600.875,57.1381,582.982,57,564.32l-1-76.26l193,44l192,12-.91,1.14L457,759.07Z" fill="#fcdbaa"/><path d="M199.99,654.06l72,89l83-57.99-4-60-109-8.01-42,37Z" fill="#fcdbaa"/><path d="M261.014,164.057h-.01c-9.494-.19-17.344,7.352-17.534,16.846l-.107,5.38c-.19,9.494,7.352,17.344,16.846,17.534h.01c9.494.19,17.344-7.352,17.534-16.846l.107-5.38c.19-9.494-7.352-17.344-16.846-17.534Z" fill="#f8fafc"/><path d="M275.941,189.607c.114-5.732-2.989-10.444-6.933-10.522-3.943-.079-7.233,4.504-7.347,10.237-.115,5.732,2.989,10.444,6.932,10.523c3.943.078,7.233-4.505,7.348-10.238Z" fill="#010024"/><path d="M297.8,141.24c-.084,4.029-1.239,7.964-3.347,11.399s-5.093,6.247-8.647,8.147c-3.555,1.9-7.551,2.819-11.578,2.664-4.028-.156-7.941-1.381-11.338-3.55-1.355,1.619-3.104,2.863-5.079,3.612-1.974.749-4.108.978-6.196.665-2.089-.313-4.062-1.158-5.73-2.454-1.668-1.295-2.974-2.997-3.795-4.943-1.146,2.387-2.837,4.471-4.937,6.083-2.101,1.612-4.551,2.707-7.153,3.197-1.196,6.299-4.196,12.115-8.633,16.743-4.438,4.628-10.124,7.868-16.367,9.327-.446,2.679-1.352,5.261-2.68,7.63c1.945,2.872,3.186,6.162,3.621,9.604.436,3.441.053,6.937-1.116,10.203-1.169,3.265-3.092,6.21-5.612,8.593s-5.567,4.139-8.893,5.124-6.838,1.172-10.25.545c-3.411-.627-6.627-2.049-9.386-4.152s-4.983-4.826-6.492-7.95c-1.509-3.123-2.26-6.559-2.192-10.027.056-2.577.557-5.124,1.48-7.53-2.157-2.394-3.811-5.198-4.861-8.245s-1.476-6.274-1.252-9.489c.224-3.216,1.093-6.353,2.556-9.224c1.462-2.872,3.488-5.42,5.957-7.492-1.556-5.009-1.899-10.317-1.001-15.484.899-5.168,3.012-10.049,6.166-14.239c3.155-4.191,7.26-7.572,11.978-9.865s9.913-3.431,15.157-3.322c.88,0,1.76.07,2.62.16c0-.25,0-.5,0-.76.068-3.342,1.167-6.581,3.147-9.274s4.745-4.708,7.915-5.769c3.169-1.061,6.59-1.116,9.792-.158s6.03,2.883,8.096,5.511c2.88-1.545,6.084-2.388,9.351-2.459c3.267-.072,6.505.631,9.449,2.049.557-2.999,2.207-5.684,4.631-7.537c2.423-1.852,5.447-2.74,8.487-2.491s5.879,1.617,7.969,3.839s3.281,5.14,3.343,8.189c3.187-.295,6.401.087,9.431,1.119s5.808,2.692,8.152,4.871c2.345,2.18,4.203,4.829,5.453,7.776c1.251,2.946,1.865,6.124,1.804,9.324l-.02.04Z" fill="#010024"/><path d="M218.18,203.81c9.676,0,17.52-7.844,17.52-17.52s-7.844-17.52-17.52-17.52-17.52,7.844-17.52,17.52s7.844,17.52,17.52,17.52Z" fill="#c0512b"/><path d="M280.66,221c-.123,4.887-2.179,9.525-5.716,12.899s-8.267,5.208-13.154,5.101c-4.902-.102-9.563-2.148-12.958-5.687-3.394-3.538-5.244-8.281-5.142-13.183" fill="none" stroke="#010024" stroke-width="5" stroke-linecap="round" stroke-miterlimit="10"/><path d="M241.5,281.56l10.33-19.42c0,0,39.27-.5,44.23-50.55h13.61c3.383,0,6.634-1.312,9.07-3.66c2.435-2.348,3.866-5.549,3.99-8.93v0c.059-1.752-.235-3.497-.865-5.133s-1.582-3.128-2.801-4.388c-1.219-1.259-2.679-2.261-4.292-2.944-1.614-.684-3.349-1.036-5.102-1.035h-13.08c0,0,.89-26.59-17.73-36.34" fill="none" stroke="#002" stroke-width="5" stroke-linecap="round" stroke-miterlimit="10"/><path d="M208.51,266.56l6.67-12.85c0,0-15.08-10.06-19.8-35.38" fill="none" stroke="#010024" stroke-width="5" stroke-linecap="round" stroke-miterlimit="10"/><path d="M62.5,508.56l1.26,22.77c-.0013,13.753,2.7064,27.371,7.9685,40.078c5.262,12.706,12.9755,24.252,22.6997,33.977c9.7248,9.725,21.2688,17.439,33.9748,22.703c12.706,5.263,26.324,7.972,40.077,7.972h178.52c0,0,1,129,0,130s96-20,96-20" fill="none" stroke="#002" stroke-width="5" stroke-linecap="round" stroke-miterlimit="10"/><path d="M139.49,551.56c0,0,6,12-11,25" fill="none" stroke="#002" stroke-width="5" stroke-linecap="round" stroke-miterlimit="10"/><path d="M353.53,731.37l90.96-14.8" fill="none" stroke="#002" stroke-width="5" stroke-linecap="round" stroke-miterlimit="10"/><path d="M341.49,639.57l-96,57.99" fill="none" stroke="#002" stroke-width="5" stroke-linecap="round" stroke-miterlimit="10"/><path d="M203.83,655.45l67.66,87.11l22.16-15.47-24.16-38.53" fill="none" stroke="#002" stroke-width="5" stroke-linecap="round" stroke-miterlimit="10"/><path d="M260,835c-1.506.464-3.089.626-4.658.478s-3.094-.604-4.487-1.341-2.627-1.742-3.631-2.956c-1.005-1.214-1.761-2.615-2.224-4.121l-48.11-156.5h-36.89v156.64c0,3.183-1.264,6.235-3.515,8.485-2.25,2.251-5.302,3.515-8.485,3.515s-6.235-1.264-8.485-3.515c-2.251-2.25-3.515-5.302-3.515-8.485v-156.64h-28.93L58.9399,827.05c-.9582,3.014-3.0674,5.528-5.869,6.995s-6.0691,1.769-9.092.84c-3.023-.929-5.557-3.014-7.0511-5.801-1.4941-2.788-1.8276-6.052-.9279-9.084l46-149.44h-4c-4.9065,0-9.612-1.949-13.0814-5.418-3.4695-3.47-5.4186-8.175-5.4186-13.082c0-4.906,1.9491-9.612,5.4186-13.081c3.4694-3.47,8.1749-5.419,13.0814-5.419h162.0001c4.906,0,9.612,1.949,13.081,5.419c3.47,3.469,5.419,8.175,5.419,13.081c0,4.907-1.949,9.612-5.419,13.082-3.469,3.469-8.175,5.418-13.081,5.418h-18L267.9,820c.938,3.037.633,6.322-.848,9.134s-4.017,4.922-7.052,5.866Z" fill="#fbd206"/><path d="M75.11,675.33c-4.3529-.686-8.3179-2.903-11.1815-6.252-2.8635-3.35-4.4374-7.611-4.4385-12.018v0c0-2.43.4788-4.837,1.4092-7.082s2.2939-4.285,4.0128-6.003s3.7596-3.08,6.0053-4.01c2.2456-.929,4.6524-1.406,7.0827-1.405h162c4.906,0,9.612,1.949,13.081,5.419c3.47,3.469,5.419,8.175,5.419,13.081v0c0,4.907-1.949,9.612-5.419,13.082-3.469,3.469-8.175,5.418-13.081,5.418h-162c-.9646,0-1.9276-.077-2.88-.23" fill="none" stroke="#002" stroke-width="5" stroke-linecap="round" stroke-miterlimit="10"/><path d="M328.59,121.49c-22.75-4.34-28.16,6.5-45.5,7.57s-9.75,20.58-21.66,21.67-28.17,0-43.22,9.42-20.7,25.24-39.38,26.26-47.4,33.65-47.4,33.65l21-64.07l1.35-4.13-.78-22.28-1-25.44l87.75-40.0799l20.93,18.44l14.22,12.5l8,3.94L328.59,121.49Z" fill="#1a5ffe"/><path d="M282.92,98.97l-2.37,1.04-126.59,55.33-1.48.65.5-26.41L260.68,82.5L274.9,95.03l8.02,3.94Z" fill="#fbd206"/><path d="M280.92,93.97l-2.37,1.04-126.59,55.33-1.48.65l1.35-4.13-.85-22.28L258.68,77.5L272.9,90.03l8.02,3.94Z" fill="none" stroke="#002" stroke-width="5" stroke-linecap="round" stroke-miterlimit="10"/><path d="M326.59,114.49c-22.75-4.34-28.16,6.5-45.5,7.57s-9.75,20.58-21.66,21.67-28.17,0-43.22,9.42-20.7,25.24-39.38,26.26-47.4,33.65-47.4,33.65l21-64.07l1.35-4.13-.78-22.28-1-25.4399l87.75-40.08l20.93,18.44l14.22,12.5l8,3.94L326.59,114.49Z" fill="none" stroke="#00001d" stroke-width="5" stroke-miterlimit="10"/><path d="M665.98,845.08c73.454,0,133-4.477,133-10s-59.546-10-133-10-133,4.477-133,10s59.546,10,133,10Z" fill="#002"/><path d="M277.89,563.54L42,498.06L187.2,259.7l64.92,26.82l25.77,277.02Z" fill="#1a5ffe"/><path d="M275.95,563.35L51.5,492.56L191.55,260.85l58.95,25.71l14.09,129.09" fill="none" stroke="#002" stroke-width="5" stroke-linecap="round" stroke-miterlimit="10"/><path d="M141,675.76v151.44c0,3.183,1.264,6.235,3.515,8.485c2.25,2.251,5.302,3.515,8.485,3.515s6.235-1.264,8.485-3.515c2.251-2.25,3.515-5.302,3.515-8.485v-150.37" fill="none" stroke="#002" stroke-width="5" stroke-linecap="round" stroke-miterlimit="10"/><path d="M99.06,677.08l-46.12,150c-.9408,3.025-3.0393,5.555-5.838,7.038-2.7988,1.484-6.0706,1.801-9.102.882-1.5117-.457-2.9183-1.209-4.1392-2.211-1.2208-1.002-2.2318-2.235-2.975-3.628-.7433-1.394-1.2041-2.92-1.3561-4.492s.0078-3.159.4703-4.669L74.16,676.38" fill="none" stroke="#002" stroke-width="5" stroke-linecap="round" stroke-miterlimit="10"/><path d="M191.24,675.08l46.72,152c.465,1.509,1.224,2.911,2.232,4.127c1.008,1.215,2.247,2.219,3.644,2.955s2.926,1.189,4.498,1.332c1.573.144,3.158-.024,4.666-.494v0c1.506-.463,2.907-1.219,4.121-2.224c1.214-1.004,2.219-2.238,2.956-3.631s1.193-2.918,1.341-4.487-.014-3.152-.478-4.658L217.49,676.56" fill="none" stroke="#002" stroke-width="5" stroke-linecap="round" stroke-miterlimit="10"/><g id="eTnte7LJ4qW36" transform="matrix(.986219 0.165447-.165447 0.986219 54.457391-28.892802)"><path d="M374.35,421.02l41.18,4.68-6.32,12.85-62.47-5.8-.02-.05-15.88,5.52-56.12,19.52-11.75-33.75l70.14-24.4l17.18-26.66l10.38,4.98-7.58,11.44l45.7-27.3l4.55,9.03-33.27,23.98l42.89-15.94l4.28,14.03-42.82,14.69l45.59-7.64l5.01,12.19-50.67,8.63Z" fill="#c0512b"/><path d="M352.23,371.71l8.94,6.25-6.29,9.66l46.02-24.91l2.33,7.92-31.08,23.29l43.06-14.85l3.9,12.92-43.43,14.79l46.37-5.87l1.84,9.9-47.67,8.96l39.26,6.62-4.51,10.97-62.36-7.45-14.78,5.61-9.39-33.64l12.39-2.71l15.4-27.46Z" fill="none" stroke="#002" stroke-width="5" stroke-linecap="round" stroke-linejoin="round"/><path d="M144.28,504.34L138,461.06l183-65l16,50-113.55,61.48c-5.407,4.992-11.744,8.869-18.65,11.41-6.906,2.54-14.246,3.695-21.598,3.398-7.353-.297-14.575-2.041-21.253-5.13-6.679-3.09-12.683-7.466-17.669-12.878v0Z" fill="#1a5ffe"/><path d="M175.54,306.46L141.6,425.26c-4.39,15.39-4.38,34.17-.79,49.6c6.4,27.46,40.68,50.55,68.23,38.48c11-4.79,111.9-58,125.46-69.77l-14-48-123.44,43l52.44-147" fill="none" stroke="#002" stroke-width="5" stroke-linecap="round" stroke-miterlimit="10"/></g></svg>